HIERARCHY
ROOT joint_0
{
	OFFSET 0.000000 0.000000 0.000000
	CHANNELS 6 Xposition Yposition Zposition Zrotation Yrotation Xrotation 
	JOINT joint_1
	{
		OFFSET -0.613770 -1.125488 108.300049
		CHANNELS 3 Zrotation Yrotation Xrotation
		JOINT joint_2
		{
			OFFSET -10.925537 -0.900513 98.259033
			CHANNELS 3 Zrotation Yrotation Xrotation
			JOINT joint_3
			{
				OFFSET -11.287842 0.313599 98.110962
				CHANNELS 3 Zrotation Yrotation Xrotation
				JOINT joint_4
				{
					OFFSET -2.124268 2.484680 136.491943
					CHANNELS 3 Zrotation Yrotation Xrotation
					JOINT joint_5
					{
						OFFSET 16.640869 1.801270 81.862061
						CHANNELS 3 Zrotation Yrotation Xrotation
						End Site
						{
							OFFSET 0.000000 0.000000 0.000000
						}
					}
				}
				JOINT joint_6
				{
					OFFSET 0.447998 -28.248108 77.258057
					CHANNELS 3 Zrotation Yrotation Xrotation
					JOINT joint_7
					{
						OFFSET 7.918701 -130.256348 -24.086060
						CHANNELS 3 Zrotation Yrotation Xrotation
						JOINT joint_8
						{
							OFFSET 62.431885 -29.384277 -258.572021
							CHANNELS 3 Zrotation Yrotation Xrotation
							JOINT joint_9
							{
								OFFSET 53.743164 -21.907532 -238.024963
								CHANNELS 3 Zrotation Yrotation Xrotation
								End Site
								{
									OFFSET 0.000000 0.000000 0.000000
								}
							}
						}
					}
				}
				JOINT joint_10
				{
					OFFSET -2.846924 31.052063 76.130981
					CHANNELS 3 Zrotation Yrotation Xrotation
					JOINT joint_11
					{
						OFFSET 9.073730 131.055603 -18.752930
						CHANNELS 3 Zrotation Yrotation Xrotation
						JOINT joint_12
						{
							OFFSET 52.981201 29.883301 -260.613037
							CHANNELS 3 Zrotation Yrotation Xrotation
							JOINT joint_13
							{
								OFFSET 62.237793 15.935547 -236.423035
								CHANNELS 3 Zrotation Yrotation Xrotation
								End Site
								{
									OFFSET 0.000000 0.000000 0.000000
								}
							}
						}
					}
				}
			}
		}
	}
	JOINT joint_14
	{
		OFFSET 22.046143 -72.816772 -98.122925
		CHANNELS 3 Zrotation Yrotation Xrotation
		JOINT joint_15
		{
			OFFSET -23.673828 -54.692932 -469.927032
			CHANNELS 3 Zrotation Yrotation Xrotation
			JOINT joint_16
			{
				OFFSET -34.875244 -46.505249 -395.890999
				CHANNELS 3 Zrotation Yrotation Xrotation
				JOINT joint_17
				{
					OFFSET 168.486328 14.224182 -74.182999
					CHANNELS 3 Zrotation Yrotation Xrotation
					End Site
					{
						OFFSET 0.000000 0.000000 0.000000
					}
				}
			}
		}
	}
	JOINT joint_18
	{
		OFFSET -1.731934 82.408569 -92.846924
		CHANNELS 3 Zrotation Yrotation Xrotation
		JOINT joint_19
		{
			OFFSET -6.908936 32.203369 -472.535034
			CHANNELS 3 Zrotation Yrotation Xrotation
			JOINT joint_20
			{
				OFFSET -13.963135 23.196533 -399.207993
				CHANNELS 3 Zrotation Yrotation Xrotation
				JOINT joint_21
				{
					OFFSET 168.417725 19.834229 -73.041004
					CHANNELS 3 Zrotation Yrotation Xrotation
					End Site
					{
						OFFSET 0.000000 0.000000 0.000000
					}
				}
			}
		}
	}
}
MOTION
Frames: 7
Frame Time: 0.016667
-3023.574951 1032.720215 1060.755005 -1.659360 1.814141 -1.343203 0.484822 -0.621132 2.011968 0.241595 0.013297 -0.427751 0.325012 -0.099080 0.274896 0.074403 1.873701 -0.539720 0.000000 0.000000 0.000000 3.697032 3.291304 0.740023 -0.502150 4.023648 -0.031437 0.868329 -1.685413 3.207543 0.000000 0.000000 0.000000 1.879822 0.694019 -2.239696 0.169328 0.280730 0.195993 0.772318 1.194779 2.641281 0.000000 0.000000 0.000000 1.943392 -4.926778 5.632294 1.628696 0.738738 0.124575 1.338784 3.108029 0.319130 0.000000 0.000000 0.000000 2.482702 -3.698673 0.545353 2.847157 1.046202 -0.329571 2.724959 -0.177616 1.201408 0.000000 0.000000 0.000000 
-3023.900391 1032.444092 1060.717041 -1.673771 1.773882 -1.335785 0.501146 -0.575443 2.006164 0.257851 0.006772 -0.427069 0.340797 -0.087226 0.272195 0.074519 1.875169 -0.540395 0.000000 0.000000 0.000000 3.677808 3.307585 0.760331 -0.503766 4.035417 -0.034244 0.868719 -1.710597 3.199008 0.000000 0.000000 0.000000 1.850211 0.672959 -2.276738 0.163056 0.261295 0.184105 0.770389 1.214885 2.628774 0.000000 0.000000 0.000000 1.945913 -4.899732 5.638294 1.635523 0.727650 0.133551 1.342162 3.134022 0.318332 0.000000 0.000000 0.000000 2.485183 -3.695561 0.564441 2.852996 1.089720 -0.342877 2.728829 -0.162772 1.201311 0.000000 0.000000 0.000000 
-3024.205566 1032.162598 1060.675049 -1.688170 1.735996 -1.326004 0.517332 -0.534010 1.994242 0.274946 -0.000354 -0.423836 0.356831 -0.074684 0.267101 0.073945 1.877526 -0.537790 0.000000 0.000000 0.000000 3.655265 3.323622 0.784058 -0.505152 4.046095 -0.037286 0.868040 -1.731094 3.187493 0.000000 0.000000 0.000000 1.812203 0.654897 -2.309609 0.157294 0.246338 0.173573 0.767074 1.234614 2.610957 0.000000 0.000000 0.000000 1.948759 -4.872306 5.641480 1.642951 0.712729 0.143337 1.345442 3.162912 0.317245 0.000000 0.000000 0.000000 2.488009 -3.691243 0.581320 2.858690 1.127937 -0.356470 2.732990 -0.145399 1.201044 0.000000 0.000000 0.000000 
-3024.478271 1031.877563 1060.614014 -1.709517 1.689816 -1.312114 0.533498 -0.484164 1.977663 0.292146 -0.014659 -0.421560 0.373092 -0.054684 0.262886 0.073223 1.889210 -0.535316 0.000000 0.000000 0.000000 3.631165 3.338091 0.810232 -0.507309 4.054652 -0.044627 0.867647 -1.751870 3.177019 0.000000 0.000000 0.000000 1.783121 0.637808 -2.343812 0.152291 0.230823 0.166922 0.763601 1.253223 2.592829 0.000000 0.000000 0.000000 1.953434 -4.832354 5.641479 1.653774 0.694273 0.151643 1.351604 3.190469 0.317531 0.000000 0.000000 0.000000 2.494041 -3.673415 0.594187 2.866267 1.163345 -0.370010 2.739008 -0.130477 1.201875 0.000000 0.000000 0.000000 
-3024.718994 1031.595093 1060.536011 -1.718868 1.673757 -1.297094 0.543048 -0.468654 1.957952 0.304333 -0.034844 -0.412981 0.383093 -0.033207 0.254947 0.073899 1.918948 -0.541375 0.000000 0.000000 0.000000 3.595893 3.357282 0.836220 -0.510204 4.065889 -0.054027 0.867993 -1.775931 3.168327 0.000000 0.000000 0.000000 1.766514 0.627612 -2.377674 0.148613 0.220355 0.163883 0.758743 1.266338 2.570855 0.000000 0.000000 0.000000 1.956351 -4.818129 5.639565 1.661195 0.666984 0.158290 1.353074 3.220330 0.315579 0.000000 0.000000 0.000000 2.494681 -3.685920 0.604233 2.870457 1.194355 -0.383636 2.742200 -0.111121 1.200957 0.000000 0.000000 0.000000 
-3024.927490 1031.310059 1060.438965 -1.734719 1.649877 -1.278149 0.552887 -0.444370 1.933632 0.317091 -0.063880 -0.403719 0.393306 -0.004202 0.245576 0.073992 1.958325 -0.545471 0.000000 0.000000 0.000000 3.558303 3.375590 0.865426 -0.513927 4.075523 -0.067643 0.868679 -1.801151 3.160589 0.000000 0.000000 0.000000 1.757048 0.618881 -2.411661 0.145790 0.210194 0.164471 0.753593 1.277070 2.548377 0.000000 0.000000 0.000000 1.960840 -4.791657 5.634512 1.671780 0.635602 0.163718 1.357092 3.249519 0.314798 0.000000 0.000000 0.000000 2.498456 -3.685587 0.610489 2.876536 1.222773 -0.397563 2.747215 -0.094450 1.201150 0.000000 0.000000 0.000000 
-3025.085449 1031.005859 1060.306030 -1.816993 1.493592 -1.243014 0.583762 -0.271652 1.895962 0.347177 -0.119066 -0.411784 0.423864 0.066483 0.247650 0.068564 1.986313 -0.521374 0.000000 0.000000 0.000000 3.540738 3.372812 0.904953 -0.519091 4.066596 -0.094683 0.869542 -1.825486 3.154161 0.000000 0.000000 0.000000 1.746391 0.591293 -2.454813 0.142991 0.180172 0.173904 0.752616 1.295605 2.539847 0.000000 0.000000 0.000000 1.978824 -4.625922 5.620357 1.708478 0.614780 0.166215 1.388641 3.265795 0.327123 0.000000 0.000000 0.000000 2.532566 -3.529533 0.605832 2.900871 1.254920 -0.410469 2.768538 -0.102028 1.211292 0.000000 0.000000 0.000000 
